<?xml version="1.0" standalone="no"?>
<!DOCTYPE svg PUBLIC "-//W3C//DTD SVG 20010904//EN"
 "http://www.w3.org/TR/2001/REC-SVG-20010904/DTD/svg10.dtd">
<svg version="1.0" xmlns="http://www.w3.org/2000/svg"
 width="512.000000pt" height="512.000000pt" viewBox="0 0 512.000000 512.000000"
 preserveAspectRatio="xMidYMid meet">
<metadata>
Created by potrace 1.16, written by Peter Selinger 2001-2019
</metadata>
<g transform="translate(0.000000,512.000000) scale(0.100000,-0.100000)"
fill="#000000" stroke="none">
<path d="M2440 4844 c-569 -35 -1068 -251 -1466 -637 -141 -136 -221 -231
-318 -376 -127 -190 -221 -390 -292 -626 l-33 -109 51 -198 c28 -109 54 -198
57 -198 4 0 15 57 25 128 31 221 104 466 188 637 62 125 123 225 139 225 8 0
82 -15 165 -34 82 -19 220 -46 307 -62 125 -22 157 -30 157 -43 0 -9 -7 -72
-14 -141 -8 -69 -18 -162 -21 -208 l-7 -83 88 3 89 3 7 85 c12 148 31 308 38
320 5 8 28 9 86 1 149 -20 409 -41 597 -48 l187 -6 0 -179 0 -178 90 0 90 0 0
174 c0 149 2 175 16 180 9 3 75 6 147 6 135 0 457 21 606 40 46 6 85 10 86 8
2 -2 10 -79 20 -173 9 -93 19 -185 21 -202 l5 -33 84 0 85 0 0 33 c0 35 -26
297 -36 362 l-6 41 177 33 c96 17 245 49 329 70 l153 37 46 -80 c144 -253 225
-491 272 -805 9 -58 18 -107 20 -109 6 -6 8 -1 64 198 l50 176 -28 100 c-191
683 -692 1246 -1338 1503 -190 75 -400 129 -588 150 -104 12 -315 20 -395 15z
m30 -681 l0 -506 -177 6 c-247 9 -645 46 -661 61 -14 15 84 433 155 665 l48
154 55 19 c130 44 355 91 490 101 25 2 55 4 68 5 l22 2 0 -507z m385 486 c147
-21 378 -80 401 -103 45 -43 240 -821 210 -837 -26 -14 -418 -45 -673 -53
l-143 -4 0 509 0 510 68 -6 c37 -4 99 -11 137 -16z m860 -326 c113 -73 245
-185 369 -313 130 -136 145 -156 118 -164 -58 -17 -285 -67 -387 -85 -66 -12
-130 -23 -141 -26 -20 -5 -23 3 -43 113 -33 174 -118 521 -148 599 -6 14 126
-56 232 -124z m-2116 60 c-35 -120 -97 -375 -119 -488 -11 -60 -23 -119 -25
-131 l-5 -21 -157 28 c-150 26 -394 76 -400 82 -1 2 40 51 92 109 152 172 315
303 539 434 50 30 92 54 93 54 1 0 -7 -30 -18 -67z"/>
<path d="M0 2973 c-1 -5 75 -259 167 -566 l168 -558 99 3 99 3 112 333 c62
183 120 365 129 405 9 39 22 90 28 112 l10 40 33 -130 c19 -71 70 -245 115
-385 45 -140 91 -283 101 -317 l20 -63 99 0 98 0 21 63 c42 129 329 1023 336
1045 l7 23 -108 -3 -107 -3 -88 -310 c-49 -170 -104 -375 -123 -455 l-34 -145
-11 45 c-39 150 -92 329 -169 580 l-89 285 -94 0 -93 0 -44 -135 c-128 -397
-186 -585 -209 -680 l-27 -104 -18 84 c-10 47 -61 255 -115 463 l-97 377 -108
0 c-59 0 -108 -3 -108 -7z"/>
<path d="M1741 2968 c0 -7 76 -260 167 -563 l167 -550 100 0 100 0 111 330
c61 182 123 382 139 445 l29 115 13 -55 c30 -120 68 -248 160 -537 l96 -303
98 0 98 0 95 293 c212 654 266 824 266 830 0 4 -47 7 -105 7 l-104 0 -20 -67
c-114 -390 -204 -723 -217 -811 l-7 -47 -9 35 c-28 110 -109 389 -181 620
l-83 265 -93 0 -93 0 -84 -260 c-77 -239 -138 -439 -180 -590 l-17 -60 -33
143 c-18 79 -69 282 -114 452 -44 169 -80 311 -80 314 0 3 -49 6 -110 6 -82 0
-110 -3 -109 -12z"/>
<path d="M3485 2958 c4 -13 79 -266 169 -563 l163 -540 99 -3 99 -3 113 338
c63 186 126 387 141 447 l27 110 32 -125 c18 -68 78 -269 134 -447 l103 -323
99 3 99 3 173 535 c95 294 176 547 179 563 l7 27 -106 0 c-91 0 -105 -2 -110
-17 -75 -250 -203 -722 -227 -838 l-12 -60 -29 110 c-15 61 -72 250 -125 420
-52 171 -100 327 -106 348 l-9 37 -94 0 -93 0 -65 -202 c-120 -374 -166 -522
-188 -610 -13 -49 -25 -88 -28 -88 -3 0 -12 28 -19 63 -10 50 -188 755 -207
820 -5 15 -19 17 -115 17 -108 0 -109 0 -104 -22z"/>
<path d="M1492 2023 l-60 -188 18 -105 c10 -58 15 -108 12 -111 -4 -4 -77 -19
-162 -34 -174 -31 -324 -63 -458 -99 l-91 -24 -56 109 -56 109 -94 0 c-63 0
-95 -4 -95 -11 0 -23 147 -297 209 -389 457 -683 1233 -1060 2059 -1000 761
55 1414 451 1797 1089 36 59 155 295 155 306 0 3 -42 5 -94 5 l-94 0 -52 -97
c-29 -54 -56 -103 -61 -109 -6 -8 -49 -1 -147 22 -142 34 -506 104 -545 104
-45 0 -47 9 -28 118 l18 102 -57 191 c-32 104 -60 193 -63 195 -3 3 -8 -14
-11 -38 -24 -182 -40 -291 -59 -406 l-22 -132 -30 5 c-16 3 -75 9 -130 15 -90
9 -174 14 -537 36 l-108 6 0 96 c0 86 -5 110 -46 241 -25 80 -48 148 -50 150
-8 9 -13 -7 -48 -145 -30 -116 -36 -159 -36 -242 l0 -102 -77 0 c-120 0 -442
-19 -602 -35 -79 -8 -145 -14 -146 -13 -5 8 -39 222 -60 379 -13 99 -25 183
-28 185 -2 2 -31 -80 -65 -183z m978 -1043 l0 -530 -40 0 c-61 0 -245 28 -348
53 l-94 22 -29 75 c-90 229 -188 527 -248 756 l-29 111 133 13 c197 18 353 27
513 29 l142 1 0 -530z m647 504 c99 -8 208 -18 241 -22 l60 -7 -53 -185 c-74
-257 -239 -717 -268 -747 -21 -21 -318 -73 -414 -73 l-33 0 0 531 0 530 143
-6 c78 -3 224 -13 324 -21z m-1587 -136 c45 -194 130 -467 208 -670 35 -90 44
-90 -117 -9 -270 136 -493 313 -683 541 l-79 94 37 13 c68 24 535 119 596 122
13 1 21 -20 38 -91z m2230 57 c80 -13 225 -41 322 -62 l176 -37 -39 -51 c-136
-172 -310 -331 -504 -460 -101 -67 -361 -202 -371 -192 -3 3 19 74 49 159 72
201 138 415 172 556 15 61 33 112 39 112 6 0 76 -11 156 -25z"/>
</g>
</svg>
